<svg width="219" height="176" viewBox="0 0 219 176" fill="none" xmlns="http://www.w3.org/2000/svg">
<g id="Group 35950">
<g id="Group 35894">
<path id="Vector" d="M175.653 63.5977L166.701 54.6808L158.054 46.086C155.743 43.7838 152.999 41.9576 149.979 40.7116C146.96 39.4656 143.723 38.8244 140.455 38.8244C137.186 38.8244 133.95 39.4656 130.93 40.7116C127.91 41.9576 125.167 43.7838 122.856 46.086L110.803 58.0725C111.793 59.0607 112.968 59.8448 114.263 60.3798C115.557 60.9148 116.944 61.1902 118.346 61.1902C119.747 61.1902 121.134 60.9148 122.428 60.3798C123.723 59.8448 124.898 59.0607 125.888 58.0725L130.4 53.578C133.067 50.9228 136.684 49.4312 140.455 49.4312C144.226 49.4312 147.842 50.9228 150.51 53.578L159.157 62.1955L160.565 63.5977L127.961 96.0744C114.57 109.414 92.3939 109.671 79.265 96.0744C73.1359 89.7253 69.7505 81.2352 69.8359 72.4274C69.9212 63.6195 73.4705 55.1962 79.7215 48.9661L112.801 16.0157C113.793 15.03 114.58 13.859 115.117 12.5699C115.654 11.2807 115.931 9.89861 115.931 8.50283C115.931 7.10705 115.654 5.72499 115.117 4.43581C114.58 3.14662 113.793 1.97566 112.801 0.98999L72.6986 40.936C55.4648 58.1028 54.7039 86.0699 71.6486 103.521C75.7481 107.748 80.6514 111.119 86.0727 113.438C91.4939 115.757 97.3245 116.978 103.224 117.028C109.124 117.079 114.975 115.959 120.436 113.734C125.896 111.508 130.857 108.222 135.03 104.067L175.653 63.5977Z" fill="white"/>
<path id="Vector_2" d="M146.154 60.101C144.776 59.0165 142.962 58.4684 141.11 58.5771C139.259 58.6859 137.521 59.4427 136.281 60.6811L115.154 81.753C112.662 84.237 109.175 85.7547 105.459 85.973C101.743 86.1913 98.1015 85.0925 95.333 82.9176C95.2068 82.8182 95.0804 82.7154 94.9579 82.6124C89.5893 78.0709 89.4139 70.1931 94.5622 65.051L125.214 34.4359C126.251 33.4012 127.051 32.1978 127.568 30.8946C128.086 29.5914 128.31 28.2139 128.229 26.8409C128.147 25.4678 127.762 24.1261 127.094 22.8925C126.427 21.6589 125.49 20.5576 124.339 19.6515L85.8157 58.1245C76.4279 67.5046 76.8206 81.9351 86.6958 90.2902C86.9205 90.4802 87.1491 90.67 87.3809 90.8493C92.475 94.8507 99.1756 96.8722 106.013 96.4705C112.85 96.0688 119.265 93.2766 123.852 88.7064L149.728 62.9119L146.154 60.101Z" fill="white"/>
<path id="Vector 737" d="M112.914 2.36194L90.791 24.707L73.7733 41.3501C49.3917 71.4311 65.5739 97.187 76.7127 106.305C100.228 123.934 123.124 113.137 131.633 105.534L174.023 63.3099L154.839 44.201C142.71 35.6945 130.447 41.3244 125.832 45.2027L112.914 58.0704C118.421 61.8305 122.995 59.6371 124.594 58.0704L129.931 52.7538C138.533 45.2335 147.181 48.6957 150.43 51.3669L162.42 63.3099L125.832 99.7554C107.329 113.625 89.0376 105.534 82.2048 99.7554C59.1846 79.4137 70.9113 56.7091 79.6522 47.8995L113.533 14.1509C117.122 8.66477 114.616 4.00571 112.914 2.36194Z" fill="white"/>
<path id="Vector 738" d="M124.262 20.7902L86.4363 59.0849C74.3692 71.7214 81.924 84.7945 87.2098 89.7515C101.69 100.662 115.727 94.7085 120.936 90.3679C122.235 89.9364 139.835 71.9012 148.473 62.9375C143.77 57.4514 138.778 59.2647 136.87 60.8571L114.051 83.5874C106.44 89.6899 97.9876 86.1301 94.713 83.5874C87.5966 76.8068 90.2523 69.2044 92.4698 66.2507L124.571 34.2742C129.955 27.6786 126.608 22.5367 124.262 20.7902Z" fill="white"/>
</g>
<g id="Group 35893">
<path id="Vector_3" d="M30.8951 174.859L30.928 171.082L30.9558 167.438C30.9644 166.463 30.7808 165.499 30.4155 164.601C30.0502 163.704 29.5104 162.89 28.8269 162.206C28.1435 161.523 27.3297 160.983 26.4321 160.618C25.5344 160.253 24.5706 160.069 23.5955 160.077L18.5145 160.118C18.5103 160.536 18.5887 160.949 18.745 161.334C18.9014 161.719 19.1327 162.068 19.4257 162.361C19.7187 162.654 20.0677 162.885 20.4526 163.042C20.8375 163.198 21.2508 163.276 21.6689 163.272L23.5725 163.256C24.6975 163.246 25.7725 163.684 26.561 164.472C27.3496 165.261 27.7872 166.336 27.7778 167.461L27.7399 171.704L13.9842 171.824C8.33423 171.873 3.64194 167.291 3.80121 161.641C3.87588 159.003 4.98166 156.481 6.88111 154.618C8.78056 152.754 11.3222 151.697 13.9603 151.673L27.9167 151.551C28.3347 151.548 28.7495 151.462 29.1372 151.299C29.5249 151.136 29.878 150.899 30.1761 150.601C30.4743 150.302 30.7117 149.949 30.8748 149.562C31.0379 149.174 31.1235 148.759 31.1266 148.341L14.2072 148.489C6.93605 148.552 0.802403 154.368 0.617748 161.639C0.572062 163.399 0.877235 165.145 1.51546 166.774C2.15369 168.403 3.1122 169.883 4.33507 171.127C5.55794 172.372 7.0207 173.356 8.638 174.023C10.2553 174.689 11.9948 175.025 13.755 175.009L30.8951 174.859Z" fill="white"/>
<path id="Vector_4" d="M137.196 148.839C136.483 148.907 135.799 149.258 135.294 149.813C134.789 150.368 134.505 151.083 134.502 151.8L134.464 164.005C134.459 165.445 133.886 166.879 132.873 167.993C131.859 169.108 130.487 169.811 129.058 169.95C128.992 169.956 128.926 169.961 128.861 169.965C125.995 170.138 123.67 167.856 123.678 164.88L123.722 147.159C123.723 146.56 123.608 145.978 123.382 145.446C123.155 144.914 122.823 144.443 122.403 144.06C121.983 143.676 121.484 143.388 120.935 143.211C120.385 143.035 119.796 142.974 119.201 143.031L119.145 165.301C119.132 170.729 123.411 174.889 128.683 174.572C128.803 174.565 128.924 174.556 129.043 174.544C131.674 174.289 134.198 172.994 136.063 170.944C137.928 168.893 138.981 166.254 138.99 163.606L139.042 148.661L137.196 148.839Z" fill="white"/>
<g id="LAM">
<path d="M34.6104 174.909H52.6186V171.638H38.3699V148.592H34.6104V174.909Z" fill="white"/>
<path d="M76.7054 174.909H80.6529L68.6975 148.592H64.9756L53.0578 174.909H56.9301L59.825 168.329H73.8105L76.7054 174.909ZM61.1408 165.322L66.8177 152.427L72.4947 165.322H61.1408Z" fill="white"/>
<path d="M112.587 174.909L112.55 148.592H109.467L98.6395 167.089L87.6616 148.592H84.5787V174.909H88.1879V155.848L97.6996 171.713H99.429L108.941 155.735L108.978 174.909H112.587Z" fill="white"/>
</g>
<g id="ARE">
<path d="M164.099 174.823H168.047L156.091 148.506H152.369L140.452 174.823H144.324L147.219 168.243H161.204L164.099 174.823ZM148.535 165.236L154.212 152.34L159.889 165.236H148.535Z" fill="white"/>
<path d="M193.665 174.823L187.424 165.988C191.109 164.672 193.214 161.739 193.214 157.679C193.214 151.965 189.079 148.506 182.236 148.506H171.973V174.823H175.732V166.815H182.236C182.8 166.815 183.364 166.777 183.89 166.74L189.567 174.823H193.665ZM182.123 163.619H175.732V151.777H182.123C186.936 151.777 189.455 153.92 189.455 157.679C189.455 161.439 186.936 163.619 182.123 163.619Z" fill="white"/>
<path d="M203.048 171.552V163.055H216.244V159.86H203.048V151.777H217.86V148.506H199.288V174.823H218.387V171.552H203.048Z" fill="white"/>
</g>
</g>
</g>
</svg>
