<svg width="374" height="326" viewBox="0 0 374 326" fill="none" xmlns="http://www.w3.org/2000/svg">
<path fill-rule="evenodd" clip-rule="evenodd" d="M328.071 273.004L373.458 318.215L167.491 523.4C146.337 544.469 121.183 561.131 93.4963 572.414C65.8096 583.698 36.1445 589.376 6.23138 589.119C-23.6817 588.861 -53.2439 582.673 -80.7307 570.914C-108.217 559.156 -133.078 542.063 -153.863 520.633C-239.776 432.153 -235.919 290.355 -148.54 203.315L54.7853 0.781616C59.8155 5.77915 63.8065 11.7162 66.5296 18.2526C69.2527 24.789 70.6544 31.7963 70.6544 38.8732C70.6544 45.9501 69.2527 52.9574 66.5296 59.4938C63.8065 66.0302 59.8155 71.9673 54.7853 76.9648L-112.932 244.03C-144.626 275.617 -162.622 318.325 -163.054 362.983C-163.487 407.641 -146.323 450.687 -115.247 482.878C-48.6807 551.817 63.7546 550.511 131.652 482.878L296.958 318.215L289.821 311.106L245.978 267.413C232.454 253.951 214.116 246.388 194.997 246.388C175.877 246.388 157.54 253.951 144.016 267.413L121.139 290.201C116.122 295.212 110.162 299.187 103.6 301.899C97.0381 304.612 90.0035 306.008 82.899 306.008C75.7944 306.008 68.7597 304.612 62.1978 301.899C55.6358 299.187 49.6756 295.212 44.6586 290.201L105.766 229.427C117.484 217.754 131.395 208.495 146.705 202.178C162.015 195.861 178.425 192.609 194.997 192.609C211.569 192.609 227.978 195.861 243.288 202.178C258.599 208.495 272.51 217.754 284.227 229.427L328.071 273.004ZM198.32 292.76C207.707 292.208 216.906 294.987 223.896 300.486L242.016 314.738L110.818 445.521C87.563 468.693 55.0352 482.85 20.3696 484.887C-14.2961 486.923 -48.2692 476.674 -74.0975 456.386C-75.273 455.477 -76.4319 454.514 -77.5712 453.551C-127.64 411.189 -129.631 338.024 -82.0336 290.465L113.285 95.3991C119.126 99.9932 123.874 105.577 127.258 111.832C130.642 118.086 132.596 124.889 133.008 131.851C133.421 138.812 132.283 145.797 129.66 152.404C127.038 159.012 122.982 165.113 117.724 170.359L-37.6867 325.583C-63.7898 351.655 -62.9004 391.597 -35.6807 414.623C-35.0594 415.146 -34.4185 415.667 -33.7787 416.171C-19.7421 427.198 -1.27823 432.769 17.5622 431.662C36.4027 430.555 54.0811 422.86 66.7188 410.266L173.833 303.427C180.125 297.148 188.932 293.311 198.32 292.76Z" fill="url(#paint0_linear_106_3386)"/>
<defs>
<linearGradient id="paint0_linear_106_3386" x1="202.613" y1="0.781632" x2="-99.4839" y2="352.924" gradientUnits="userSpaceOnUse">
<stop stop-color="#FF458C"/>
<stop offset="1" stop-color="#FF458C" stop-opacity="0"/>
</linearGradient>
</defs>
</svg>
