<svg width="262" height="402" viewBox="0 0 262 402" fill="none" xmlns="http://www.w3.org/2000/svg">
<path fill-rule="evenodd" clip-rule="evenodd" d="M465.918 131.616L504.702 170.25L328.698 345.585C310.621 363.589 289.127 377.828 265.468 387.469C241.809 397.111 216.459 401.963 190.898 401.743C165.336 401.523 140.075 396.235 116.587 386.187C93.0986 376.14 71.8543 361.534 54.093 343.221C-19.3217 267.613 -16.0252 146.442 58.6423 72.0654L232.388 -101.005C236.687 -96.7341 240.097 -91.6608 242.424 -86.0753C244.751 -80.4898 245.949 -74.5018 245.949 -68.4545C245.949 -62.4071 244.751 -56.4192 242.424 -50.8336C240.097 -45.2481 236.687 -40.1748 232.388 -35.9043L89.0697 106.857C61.9865 133.849 46.6089 170.344 46.2391 208.505C45.8693 246.666 60.5367 283.45 87.0917 310.958C143.974 369.869 240.053 368.752 298.073 310.958L439.331 170.25L433.232 164.175L395.767 126.838C384.21 115.334 368.54 108.872 352.202 108.872C335.864 108.872 320.195 115.334 308.638 126.838L289.089 146.311C284.802 150.593 279.709 153.99 274.102 156.308C268.494 158.626 262.483 159.819 256.412 159.819C250.341 159.819 244.33 158.626 238.722 156.308C233.115 153.99 228.022 150.593 223.735 146.311L275.953 94.3785C285.966 84.4039 297.853 76.4916 310.936 71.0933C324.019 65.6951 338.041 62.9166 352.202 62.9166C366.363 62.9166 380.386 65.6951 393.469 71.0933C406.552 76.4916 418.439 84.4039 428.452 94.3785L465.918 131.616ZM355.042 148.498C363.064 148.026 370.924 150.401 376.897 155.1L392.382 167.279L280.269 279.036C260.398 298.837 232.602 310.934 202.979 312.675C173.357 314.415 144.326 305.657 122.255 288.32C121.25 287.543 120.26 286.721 119.286 285.898C76.5013 249.698 74.8 187.177 115.473 146.537L282.378 -20.1518C287.368 -16.226 291.426 -11.4543 294.318 -6.10961C297.21 -0.764908 298.88 5.04806 299.232 10.997C299.584 16.9459 298.612 22.914 296.371 28.5603C294.13 34.2066 290.664 39.4203 286.171 43.9034L153.369 176.546C131.063 198.825 131.823 232.957 155.083 252.633C155.614 253.079 156.161 253.525 156.708 253.955C168.703 263.378 184.481 268.139 200.58 267.193C216.68 266.247 231.786 259.672 242.586 248.909L334.117 157.613C339.494 152.248 347.02 148.969 355.042 148.498Z" fill="url(#paint0_linear_106_3385)"/>
<defs>
<linearGradient id="paint0_linear_106_3385" x1="291.911" y1="-34.3555" x2="67.2108" y2="372.311" gradientUnits="userSpaceOnUse">
<stop stop-color="#FF6B79"/>
<stop offset="1" stop-color="#FF6B79" stop-opacity="0"/>
</linearGradient>
</defs>
</svg>
