<svg width="16" height="16" viewBox="0 0 16 16" fill="none" xmlns="http://www.w3.org/2000/svg">
<path d="M10.3131 2.13192C10.0569 1.87567 9.61311 2.05067 9.61311 2.40692V4.58817C9.61311 5.50067 10.3881 6.25692 11.3319 6.25692C11.9256 6.26317 12.7506 6.26317 13.4569 6.26317C13.8131 6.26317 14.0006 5.84442 13.7506 5.59442C12.8506 4.68817 11.2381 3.05692 10.3131 2.13192Z" fill="#595959"/>
<path d="M13.25 7.11875H11.4438C9.9625 7.11875 8.75625 5.9125 8.75625 4.43125V2.625C8.75625 2.28125 8.475 2 8.13125 2H5.48125C3.55625 2 2 3.25 2 5.48125V11.0188C2 13.25 3.55625 14.5 5.48125 14.5H10.3938C12.3188 14.5 13.875 13.25 13.875 11.0188V7.74375C13.875 7.4 13.5938 7.11875 13.25 7.11875ZM7.625 11.8438H5.125C4.86875 11.8438 4.65625 11.6313 4.65625 11.375C4.65625 11.1187 4.86875 10.9062 5.125 10.9062H7.625C7.88125 10.9062 8.09375 11.1187 8.09375 11.375C8.09375 11.6313 7.88125 11.8438 7.625 11.8438ZM8.875 9.34375H5.125C4.86875 9.34375 4.65625 9.13125 4.65625 8.875C4.65625 8.61875 4.86875 8.40625 5.125 8.40625H8.875C9.13125 8.40625 9.34375 8.61875 9.34375 8.875C9.34375 9.13125 9.13125 9.34375 8.875 9.34375Z" fill="#595959"/>
</svg>
