<svg width="16" height="16" viewBox="0 0 16 16" fill="none" xmlns="http://www.w3.org/2000/svg">
<path d="M9.08903 2.86316L10.1526 4.99035C10.2977 5.28042 10.6844 5.57049 11.0067 5.61884L12.9325 5.94114C14.1653 6.15064 14.4553 7.03696 13.569 7.92329L12.0703 9.43005C11.8205 9.67983 11.6755 10.1713 11.7561 10.5259L12.1831 12.3872C12.5215 13.8536 11.74 14.4257 10.4427 13.6602L8.63781 12.5886C8.30745 12.3952 7.77565 12.3952 7.44529 12.5886L5.63235 13.6522C4.33509 14.4177 3.55351 13.8456 3.89192 12.3791L4.31897 10.5178C4.39955 10.1713 4.25451 9.67983 4.00473 9.42199L2.51409 7.93135C1.62776 7.04502 1.91783 6.15064 3.15063 5.9492L5.07638 5.6269C5.39868 5.57049 5.78544 5.28848 5.93048 4.99841L6.99407 2.87122C7.56615 1.71094 8.51694 1.71094 9.08903 2.86316Z" fill="#FAAD14"/>
</svg>
